<svg xmlns="http://www.w3.org/2000/svg" style="display:none">
  <symbol id="icon-user" viewBox="0 0 24 24">
    <g fill="none" stroke="currentColor" stroke-width="1.6" stroke-linecap="round" stroke-linejoin="round">
      <circle cx="12" cy="8" r="3.5" />
      <path d="M4.5 19c1.8-3.2 5-5 7.5-5s5.7 1.8 7.5 5" />
    </g>
  </symbol>
  <symbol id="icon-user-plus" viewBox="0 0 24 24">
    <g fill="none" stroke="currentColor" stroke-width="1.6" stroke-linecap="round" stroke-linejoin="round">
      <circle cx="9.5" cy="8" r="3.5" />
      <path d="M2.5 19c1.6-2.8 4.3-4.5 7-4.5" />
      <path d="M16 8v6" />
      <path d="M13 11h6" />
    </g>
  </symbol>
  <symbol id="icon-bolt" viewBox="0 0 24 24">
    <path d="M13 2L6 14h6l-1 8 7-12h-6z" fill="none" stroke="currentColor" stroke-width="1.6" stroke-linejoin="round" />
  </symbol>
  <symbol id="icon-card" viewBox="0 0 24 24">
    <g fill="none" stroke="currentColor" stroke-width="1.6" stroke-linecap="round" stroke-linejoin="round">
      <rect x="3" y="5" width="18" height="14" rx="2" />
      <path d="M3 9h18" />
      <path d="M7 14h5" />
    </g>
  </symbol>
  <symbol id="icon-chart" viewBox="0 0 24 24">
    <g fill="none" stroke="currentColor" stroke-width="1.6" stroke-linecap="round" stroke-linejoin="round">
      <path d="M4 20h16" />
      <path d="M7 16v-5" />
      <path d="M12 16v-8" />
      <path d="M17 16v-3" />
    </g>
  </symbol>
  <symbol id="icon-shield" viewBox="0 0 24 24">
    <path d="M12 3l7 3v6c0 5-3.5 8.5-7 10-3.5-1.5-7-5-7-10V6l7-3z" fill="none" stroke="currentColor" stroke-width="1.6" stroke-linejoin="round" />
  </symbol>
  <symbol id="icon-shield-check" viewBox="0 0 24 24">
    <g fill="none" stroke="currentColor" stroke-width="1.6" stroke-linecap="round" stroke-linejoin="round">
      <path d="M12 3l7 3v6c0 5-3.5 8.5-7 10-3.5-1.5-7-5-7-10V6l7-3z" />
      <path d="M8.5 12.5l2.5 2.5 4.5-5" />
    </g>
  </symbol>
  <symbol id="icon-eye" viewBox="0 0 24 24">
    <g fill="none" stroke="currentColor" stroke-width="1.6" stroke-linecap="round" stroke-linejoin="round">
      <path d="M2.5 12s3.5-6 9.5-6 9.5 6 9.5 6-3.5 6-9.5 6-9.5-6-9.5-6z" />
      <circle cx="12" cy="12" r="2.5" />
    </g>
  </symbol>
  <symbol id="icon-spark" viewBox="0 0 24 24">
    <path d="M12 3l1.8 4.8 4.7 1.9-4.7 1.9L12 16.5l-1.8-4.9-4.7-1.9 4.7-1.9L12 3z" fill="none" stroke="currentColor" stroke-width="1.6" stroke-linejoin="round" />
  </symbol>
  <symbol id="icon-wallet" viewBox="0 0 24 24">
    <g fill="none" stroke="currentColor" stroke-width="1.6" stroke-linecap="round" stroke-linejoin="round">
      <path d="M4 7h14a2 2 0 0 1 2 2v6a2 2 0 0 1-2 2H6a2 2 0 0 1-2-2z" />
      <path d="M4 7V6a2 2 0 0 1 2-2h10" />
      <circle cx="16.5" cy="12" r="1.5" />
    </g>
  </symbol>
  <symbol id="icon-sliders" viewBox="0 0 24 24">
    <g fill="none" stroke="currentColor" stroke-width="1.6" stroke-linecap="round" stroke-linejoin="round">
      <path d="M5 6h14" />
      <path d="M5 12h14" />
      <path d="M5 18h14" />
      <circle cx="9" cy="6" r="2" />
      <circle cx="15" cy="12" r="2" />
      <circle cx="11" cy="18" r="2" />
    </g>
  </symbol>
  <symbol id="icon-lock" viewBox="0 0 24 24">
    <g fill="none" stroke="currentColor" stroke-width="1.6" stroke-linecap="round" stroke-linejoin="round">
      <rect x="5" y="10" width="14" height="10" rx="2" />
      <path d="M8 10V7a4 4 0 0 1 8 0v3" />
    </g>
  </symbol>
  <symbol id="icon-id" viewBox="0 0 24 24">
    <g fill="none" stroke="currentColor" stroke-width="1.6" stroke-linecap="round" stroke-linejoin="round">
      <rect x="3" y="5" width="18" height="14" rx="2" />
      <circle cx="8.5" cy="11" r="2.5" />
      <path d="M6.5 16h4" />
      <path d="M13.5 9.5h4" />
      <path d="M13.5 13h4" />
    </g>
  </symbol>
  <symbol id="icon-monitor" viewBox="0 0 24 24">
    <g fill="none" stroke="currentColor" stroke-width="1.6" stroke-linecap="round" stroke-linejoin="round">
      <rect x="4" y="5" width="16" height="12" rx="2" />
      <path d="M8 21h8" />
      <path d="M12 17v4" />
      <path d="M8 13l2-2 2 2 3-3" />
    </g>
  </symbol>
</svg>
